<?xml version="1.0" standalone="no"?>
<!DOCTYPE svg PUBLIC "-//W3C//DTD SVG 20010904//EN"
 "http://www.w3.org/TR/2001/REC-SVG-20010904/DTD/svg10.dtd">
<svg version="1.0" xmlns="http://www.w3.org/2000/svg"
 width="700.000000pt" height="700.000000pt" viewBox="0 0 700.000000 700.000000"
 preserveAspectRatio="xMidYMid meet">
<metadata>
Created by potrace 1.14, written by Peter Selinger 2001-2017
</metadata>
<g transform="translate(0.000000,700.000000) scale(0.100000,-0.100000)"
fill="#000000" stroke="none">
<path d="M3387 6989 c-96 -22 -207 -84 -300 -170 -53 -47 -197 -227 -197 -244
0 -4 -9 -19 -19 -34 -19 -26 -100 -184 -134 -261 -96 -214 -228 -665 -272
-928 -6 -35 -10 -42 -23 -37 -50 19 -325 101 -437 130 -387 102 -719 140 -975
112 -317 -34 -535 -184 -608 -417 -63 -200 2 -467 182 -754 59 -93 166 -238
221 -299 11 -12 41 -47 66 -77 86 -102 351 -364 477 -471 l42 -36 -112 -104
c-140 -129 -326 -315 -404 -405 -32 -38 -67 -78 -77 -89 -95 -105 -246 -333
-313 -472 -102 -212 -127 -395 -81 -581 15 -61 67 -142 132 -207 103 -104 219
-158 405 -191 130 -23 429 -23 545 0 11 2 43 7 70 10 76 10 113 17 200 37 45
10 92 20 106 22 59 11 304 80 433 122 77 24 140 44 141 42 1 -1 9 -40 19 -87
33 -163 107 -444 155 -589 130 -390 262 -633 442 -811 264 -263 594 -264 854
-5 109 109 184 214 258 360 102 201 217 510 262 705 2 8 12 49 23 90 11 41 32
134 47 205 15 72 28 131 29 132 1 1 64 -18 141 -43 220 -70 530 -148 675 -170
19 -3 42 -7 50 -9 8 -3 44 -7 80 -11 36 -3 94 -9 130 -13 74 -9 275 -7 365 3
319 37 535 198 600 447 25 93 16 255 -20 369 -51 158 -156 351 -287 524 -34
44 -64 83 -68 86 -3 3 -13 15 -22 28 -49 72 -314 344 -489 504 -59 53 -104
100 -100 105 3 4 44 42 90 83 178 158 387 374 518 536 428 529 509 960 233
1234 -88 88 -224 156 -347 176 -21 3 -41 8 -45 10 -27 17 -351 24 -478 10 -85
-9 -199 -27 -270 -41 -14 -3 -41 -8 -60 -11 -34 -6 -291 -71 -395 -99 -27 -7
-106 -32 -174 -54 -69 -22 -126 -40 -127 -38 -1 1 -9 40 -19 87 -9 47 -19 94
-21 105 -2 11 -15 65 -29 120 -14 55 -27 107 -29 115 -28 113 -113 370 -163
490 -168 407 -378 659 -616 742 -68 23 -214 32 -280 17z m171 -438 c38 -20
110 -90 153 -151 118 -163 236 -453 328 -800 33 -128 30 -113 70 -304 l29
-138 -52 -23 c-28 -13 -105 -47 -171 -75 -66 -29 -184 -84 -263 -121 -79 -38
-147 -69 -152 -69 -4 0 -82 35 -173 79 -90 43 -175 82 -188 86 -13 4 -28 11
-34 15 -13 10 -203 90 -213 90 -21 0 -29 23 -21 58 4 20 11 53 14 72 3 19 11
55 16 80 6 25 13 56 15 70 14 75 82 315 128 455 97 292 208 505 323 617 82 80
125 93 191 59z m-2142 -1425 c12 -2 45 -7 75 -11 186 -23 509 -104 789 -199
57 -20 106 -36 108 -36 2 0 1 -3 -1 -7 -3 -5 -8 -37 -12 -73 -4 -36 -8 -72
-10 -80 -1 -8 -6 -51 -10 -95 -4 -44 -9 -96 -11 -115 -13 -129 -22 -239 -23
-290 -1 -32 -7 -40 -58 -74 -99 -66 -199 -137 -351 -250 -81 -59 -152 -110
-157 -112 -6 -3 -20 3 -31 13 -10 10 -51 45 -89 78 -97 83 -379 365 -455 455
-88 103 -189 241 -239 327 -90 152 -131 302 -101 372 19 47 115 88 245 104 38
5 303 0 331 -7z m4579 -6 c145 -36 181 -73 172 -179 -18 -234 -322 -639 -792
-1058 -94 -84 -117 -103 -123 -103 -3 0 -43 28 -89 63 -157 117 -174 129 -313
225 -76 53 -146 102 -154 107 -11 7 -17 38 -21 115 -3 58 -8 116 -10 130 -2
14 -6 57 -9 95 -7 81 -16 159 -21 195 -2 14 -7 54 -10 90 -4 36 -9 68 -11 72
-8 13 466 159 624 193 113 24 256 49 337 59 120 16 350 13 420 -4z m-1781
-490 c4 -41 9 -95 12 -119 l6 -44 -43 25 c-24 14 -81 47 -127 73 -46 27 -79
52 -75 56 4 4 49 24 98 45 50 21 94 41 100 46 16 14 23 -5 29 -82z m-1338 54
c129 -57 146 -66 138 -74 -17 -15 -238 -139 -242 -136 -2 3 2 47 8 99 6 52 12
104 13 116 2 27 12 26 83 -5z m700 -340 c152 -80 479 -269 615 -355 l76 -49 3
-122 c3 -144 3 -450 0 -631 l-2 -127 -127 -78 c-195 -121 -420 -250 -592 -340
l-50 -26 -72 39 c-242 129 -663 376 -683 402 -7 7 -13 58 -14 116 -3 135 -3
536 0 665 l2 102 127 79 c107 66 225 134 576 332 28 16 55 29 61 29 6 0 42
-16 80 -36z m-1279 -840 c0 -115 -3 -144 -13 -140 -19 7 -184 129 -184 135 0
4 189 149 196 151 1 0 1 -65 1 -146z m2555 37 c26 -20 47 -39 48 -42 0 -3 -30
-27 -67 -54 -38 -27 -82 -59 -99 -72 l-31 -23 0 149 0 149 51 -36 c28 -19 72
-51 98 -71z m-2981 -407 c58 -44 118 -89 134 -101 17 -12 94 -66 173 -119 137
-94 142 -99 143 -133 0 -20 2 -52 4 -71 2 -19 6 -69 9 -110 4 -41 8 -95 11
-120 3 -25 7 -72 10 -105 4 -33 8 -71 10 -85 2 -14 7 -54 10 -90 4 -36 9 -68
11 -72 11 -18 -547 -182 -726 -214 -14 -3 -61 -11 -105 -20 -169 -31 -443 -39
-545 -15 -130 31 -179 70 -182 143 -4 115 90 311 250 523 26 33 49 62 52 65 3
3 29 34 59 70 134 160 541 546 566 536 6 -2 58 -39 116 -82z m3475 9 c87 -75
376 -359 445 -438 116 -132 253 -325 309 -435 51 -100 75 -195 71 -272 -3 -53
-105 -111 -220 -125 -107 -14 -359 -7 -445 12 -11 2 -37 7 -56 10 -177 26
-416 87 -675 172 -139 45 -169 59 -160 72 2 4 7 32 10 62 3 30 8 65 10 79 2
14 7 58 10 98 4 41 8 82 10 92 2 10 7 64 11 121 4 57 8 115 10 129 1 14 2 42
3 62 1 31 7 40 39 59 20 13 39 25 42 28 3 4 45 33 94 66 49 33 157 110 240
172 83 62 154 112 157 113 4 0 47 -35 95 -77z m-2443 -688 c65 -37 115 -71
110 -76 -11 -11 -194 -89 -208 -89 -6 0 -12 6 -12 13 0 6 -3 37 -7 67 -13 107
-16 161 -8 157 4 -2 60 -34 125 -72z m1323 33 c-3 -24 -7 -74 -11 -113 -4 -38
-11 -74 -16 -79 -8 -9 -188 63 -212 84 -6 6 223 148 241 150 1 0 0 -19 -2 -42z
m-575 -426 c158 -75 196 -92 368 -168 64 -28 115 -55 114 -60 0 -5 -4 -25 -7
-44 -28 -172 -100 -456 -162 -645 -134 -404 -314 -690 -448 -712 -161 -26
-396 375 -547 937 -7 25 -14 50 -15 55 -2 6 -5 19 -7 31 -3 11 -12 49 -21 85
-8 35 -18 76 -20 91 -3 15 -7 31 -9 35 -3 5 -8 28 -11 53 -4 25 -10 62 -15 83
l-9 39 56 25 c32 14 85 38 120 54 35 16 65 29 68 29 6 0 72 30 195 88 46 22
91 43 99 46 8 4 31 16 50 26 19 10 40 19 46 20 6 0 76 -31 155 -68z"/>
<path d="M3460 3780 c-14 -11 -28 -20 -32 -20 -4 0 -49 -25 -100 -55 l-93 -54
-1 -151 0 -151 132 -75 132 -75 130 75 129 76 -1 151 -1 151 -128 74 c-71 41
-132 74 -135 74 -4 0 -18 -9 -32 -20z"/>
</g>
</svg>
